<?xml version="1.0" encoding="UTF-8" standalone="no"?>
<svg
   viewBox="0 0 268 268"
   version="1.1"
   id="svg1"
   sodipodi:docname="icon2-flat.svg"
   inkscape:export-filename="icon2.png"
   inkscape:export-xdpi="183.40298"
   inkscape:export-ydpi="183.40298"
   inkscape:version="1.3.2 (091e20e, 2023-11-25)"
   xmlns:inkscape="http://www.inkscape.org/namespaces/inkscape"
   xmlns:sodipodi="http://sodipodi.sourceforge.net/DTD/sodipodi-0.dtd"
   xmlns="http://www.w3.org/2000/svg"
   xmlns:svg="http://www.w3.org/2000/svg">
  <defs
     id="defs1">
    <inkscape:path-effect
       effect="fillet_chamfer"
       id="path-effect1"
       is_visible="true"
       lpeversion="1"
       nodesatellites_param="F,0,0,1,0,0,0,1 @ F,0,0,1,0,0,0,1 @ F,0,0,1,0,0,0,1 @ F,0,0,1,0,0,0,1 | F,0,0,1,0,0,0,1 @ F,0,0,1,0,0,0,1 @ F,0,0,1,0,0,0,1 @ F,0,0,1,0,0,0,1 @ F,0,0,1,0,0,0,1 @ F,0,0,1,0,0,0,1 @ F,0,0,1,0,0,0,1 @ F,0,0,1,0,0,0,1 @ F,0,0,1,0,0,0,1 @ F,0,0,1,0,0,0,1 @ F,0,0,1,0,0,0,1 @ F,0,0,1,0,0,0,1 @ F,0,0,1,0,0,0,1 | F,0,0,1,0,0,0,1 @ F,0,0,1,0,0,0,1 @ F,0,0,1,0,0,0,1 @ F,0,0,1,0,0,0,1 @ F,0,0,1,0,0,0,1 @ F,0,0,1,0,0,0,1 @ F,0,0,1,0,0,0,1 @ F,0,0,1,0,0,0,1 | F,0,0,1,0,0,0,1 @ F,0,0,1,0,0,0,1 @ F,0,0,1,0,0,0,1 @ F,0,0,1,0,0,0,1 @ F,0,0,1,0,0,0,1 @ F,0,0,1,0,0,0,1 | F,0,0,1,0,0,0,1 @ F,0,0,1,0,0,0,1 @ F,0,0,1,0,0,0,1 @ F,0,0,1,0,0,0,1 @ F,0,0,1,0,0,0,1 @ F,0,0,1,0,0,0,1 @ F,0,0,1,0,0,0,1 @ F,0,0,1,0,0,0,1 @ F,0,0,1,0,0,0,1 @ F,0,0,1,0,0,0,1 | F,0,0,1,0,0,0,1 @ F,0,0,1,0,0,0,1 @ F,0,0,1,0,0,0,1 @ F,0,0,1,0,0,0,1 @ F,0,0,1,0,0,0,1 @ F,0,0,1,0,0,0,1 @ F,0,0,1,0,0,0,1 @ F,0,0,1,0,0,0,1 @ F,0,0,1,0,0,0,1 | F,0,0,1,0,0,0,1 @ F,0,0,1,0,0,0,1 @ F,0,0,1,0,0,0,1 @ F,0,0,1,0,0,0,1 @ F,0,0,1,0,0,0,1 @ F,0,0,1,0,0,0,1 @ F,0,0,1,0,0,0,1 @ F,0,0,1,0,0,0,1"
       radius="0"
       unit="px"
       method="auto"
       mode="F"
       chamfer_steps="1"
       flexible="false"
       use_knot_distance="true"
       apply_no_radius="true"
       apply_with_radius="true"
       only_selected="false"
       hide_knots="false" />
  </defs>
  <sodipodi:namedview
     id="namedview1"
     pagecolor="#ffffff"
     bordercolor="#000000"
     borderopacity="0.25"
     inkscape:showpageshadow="2"
     inkscape:pageopacity="0.0"
     inkscape:pagecheckerboard="0"
     inkscape:deskcolor="#d1d1d1"
     inkscape:zoom="1.2453522"
     inkscape:cx="128.47771"
     inkscape:cy="131.28816"
     inkscape:window-width="1488"
     inkscape:window-height="838"
     inkscape:window-x="0"
     inkscape:window-y="43"
     inkscape:window-maximized="0"
     inkscape:current-layer="svg1" />
  <path
     fill="#0b1d41"
     d="M 0,0 V 268 H 268 V 0 Z m 133.92689,28.393277 13.73094,35.923388 c 27.58381,6.082824 49.05067,28.058952 54.4897,55.878765 l 35.92339,13.73094 -35.91151,13.72681 c -5.40013,27.87736 -26.87709,49.95558 -54.50158,56.04671 l -13.73094,35.92339 -13.47722,-35.25832 C 91.031857,199.52224 67.675537,176.80161 62.042902,147.65783 L 26.119514,133.92637 62.042902,120.19543 C 66.515758,97.120462 82.080221,78.158388 102.98511,68.807347 108.48426,66.3475 114.3534,64.567569 120.48326,63.56374 Z M 49.350137,49.664847 52.808841,64.735245 68.039952,67.721626 52.970071,71.180329 50.026065,86.411441 46.54049,71.34466 31.293358,68.397553 46.360139,64.911978 Z m 88.506743,23.857975 c -23.48722,0.536039 -40.142253,39.462708 -40.142253,39.462708 0,0 16.823333,-14.079535 28.875243,-14.520045 19.55282,-0.714679 28.28923,9.991025 28.28923,21.861715 v 26.73377 c -0.0988,11.8671 2.73514,15.08952 9.43973,15.08952 13.50104,0 32.57643,-89.975087 -26.46195,-88.627668 z m -6.2792,37.981148 c -18.39334,-0.97732 -59.78503,40.46844 -34.736385,70.49388 15.830405,18.97568 56.807735,20.89793 73.252375,-14.22807 -1.52251,0.82409 -13.44081,7.89076 -27.41021,-4.03438 -15.72294,9.06381 -31.51596,8.5074 -37.7579,2.5492 -3.03166,-2.93981 -4.54753,-7.28067 -4.54753,-13.02246 0,-7.02794 2.5033,-12.40235 7.51014,-16.12305 5.05278,-3.72065 12.81598,-5.58105 23.28901,-5.58105 h 10.12858 c -0.32154,-8.08445 -1.49289,-13.71168 -3.51399,-16.88114 -1.42816,-2.02815 -3.58647,-3.03331 -6.21409,-3.17293 z m -2.5368,27.90889 c -5.23653,0 -8.91117,0.87292 -11.02413,2.61844 -2.11299,1.74551 -3.16932,4.5016 -3.16932,8.26823 0,3.67477 0.94134,6.45365 2.82464,8.33696 1.8833,1.83739 4.77722,2.7559 8.68164,2.7559 2.98574,0 5.78793,-0.5968 8.4062,-1.7911 2.66419,-1.1943 4.40954,-2.84795 5.23637,-4.96094 0.87275,-2.15892 1.30948,-5.53514 1.30948,-10.12858 v -4.06538 c -3.99628,-0.68902 -8.08487,-1.03353 -12.26488,-1.03353 z m 82.71175,48.20842 4.80022,20.91656 21.14031,4.14496 -20.91655,4.80074 -4.08606,21.13928 -4.83743,-20.91087 -21.16253,-4.0907 20.9119,-4.83743 z"
     id="path1"
     sodipodi:nodetypes="ccccccccccccccccscccccccccccscsscsssscccscsccsssscsccscsccccccccc"
     inkscape:path-effect="#path-effect1"
     inkscape:original-d="m 0,0 c 0,98.79661 0,197.59322 0,268 h 268 c 0,-84.0339 0,-145.35593 0,-268 z m 133.92689,28.393277 13.73094,35.923388 c 27.58381,6.082824 49.05067,28.058952 54.4897,55.878765 l 35.92339,13.73094 -35.91151,13.72681 c -5.40013,27.87736 -26.87709,49.95558 -54.50158,56.04671 l -13.73094,35.92339 -13.47722,-35.25832 C 91.031857,199.52224 67.675537,176.80161 62.042902,147.65783 L 26.119514,133.92637 62.042902,120.19543 C 66.515758,97.120462 82.080221,78.158388 102.98511,68.807347 108.48426,66.3475 114.3534,64.567569 120.48326,63.56374 Z M 49.350137,49.664847 52.808841,64.735245 68.039952,67.721626 52.970071,71.180329 50.026065,86.411441 46.54049,71.34466 31.293358,68.397553 46.360139,64.911978 Z m 88.506743,23.857975 c -23.48722,0.536039 -40.142253,39.462708 -40.142253,39.462708 0,0 16.823333,-14.079535 28.875243,-14.520045 19.55282,-0.714679 28.28923,9.991025 28.28923,21.861715 v 26.73377 c -0.0988,11.8671 2.73514,15.08952 9.43973,15.08952 13.50104,0 32.57643,-89.975087 -26.46195,-88.627668 z m -6.2792,37.981148 c -18.39334,-0.97732 -59.78503,40.46844 -34.736385,70.49388 15.830405,18.97568 56.807735,20.89793 73.252375,-14.22807 -1.52251,0.82409 -13.44081,7.89076 -27.41021,-4.03438 -15.72294,9.06381 -31.51596,8.5074 -37.7579,2.5492 -3.03166,-2.93981 -4.54753,-7.28067 -4.54753,-13.02246 0,-7.02794 2.5033,-12.40235 7.51014,-16.12305 5.05278,-3.72065 12.81598,-5.58105 23.28901,-5.58105 h 10.12858 c -0.32154,-8.08445 -1.49289,-13.71168 -3.51399,-16.88114 -1.42816,-2.02815 -3.58647,-3.03331 -6.21409,-3.17293 z m -2.5368,27.90889 c -5.23653,0 -8.91117,0.87292 -11.02413,2.61844 -2.11299,1.74551 -3.16932,4.5016 -3.16932,8.26823 0,3.67477 0.94134,6.45365 2.82464,8.33696 1.8833,1.83739 4.77722,2.7559 8.68164,2.7559 2.98574,0 5.78793,-0.5968 8.4062,-1.7911 2.66419,-1.1943 4.40954,-2.84795 5.23637,-4.96094 0.87275,-2.15892 1.30948,-5.53514 1.30948,-10.12858 v -4.06538 c -3.99628,-0.68902 -8.08487,-1.03353 -12.26488,-1.03353 z m 82.71175,48.20842 4.80022,20.91656 21.14031,4.14496 -20.91655,4.80074 -4.08606,21.13928 -4.83743,-20.91087 -21.16253,-4.0907 20.9119,-4.83743 z" />
</svg>
