<svg
  viewBox="0 0 268 268"
  xmlns="http://www.w3.org/2000/svg">
  <path
    fill="#0b1d41"
    d="M 68.52106 0.00017783203 C 30.560837 0.00017783203 0.00017783203 30.560837 0.00017783203 68.52106 L 0.00017783203 199.33271 C 0.00017783203 237.29293 30.560837 267.85308 68.52106 267.85308 L 199.33271 267.85308 C 237.29293 267.85308 267.85308 237.29293 267.85308 199.33271 L 267.85308 68.52106 C 267.85308 30.560837 237.29293 0.00017783203 199.33271 0.00017783203 L 68.52106 0.00017783203 z M 133.92689 28.393277 L 147.65783 64.316665 C 175.24164 70.399489 196.7085 92.375617 202.14753 120.19543 L 238.07092 133.92637 L 202.15941 147.65318 C 196.75928 175.53054 175.28232 197.60876 147.65783 203.69989 L 133.92689 239.62328 L 120.44967 204.36496 C 91.031857 199.52224 67.675537 176.80161 62.042902 147.65783 L 26.119514 133.92637 L 62.042902 120.19543 C 66.515758 97.120462 82.080221 78.158388 102.98511 68.807347 C 108.48426 66.3475 114.3534 64.567569 120.48326 63.56374 L 133.92689 28.393277 z M 49.350137 49.664847 L 52.808841 64.735245 L 68.039952 67.721626 L 52.970071 71.180329 L 50.026065 86.411441 L 46.54049 71.34466 L 31.293358 68.397553 L 46.360139 64.911978 L 49.350137 49.664847 z M 137.85688 73.522822 C 114.36966 74.058861 97.714627 112.98553 97.714627 112.98553 C 97.714627 112.98553 114.53796 98.905995 126.58987 98.465485 C 146.14269 97.750806 154.8791 108.45651 154.8791 120.3272 L 154.8791 147.06097 C 154.7803 158.92807 157.61424 162.15049 164.31883 162.15049 C 177.81987 162.15049 196.89526 72.175403 137.85688 73.522822 z M 131.57768 111.50397 C 113.18434 110.52665 71.79265 151.97241 96.841295 181.99785 C 112.6717 200.97353 153.64903 202.89578 170.09367 167.76978 C 168.57116 168.59387 156.65286 175.66054 142.68346 163.7354 C 126.96052 172.79921 111.1675 172.2428 104.92556 166.2846 C 101.8939 163.34479 100.37803 159.00393 100.37803 153.26214 C 100.37803 146.2342 102.88133 140.85979 107.88817 137.13909 C 112.94095 133.41844 120.70415 131.55804 131.17718 131.55804 L 141.30576 131.55804 C 140.98422 123.47359 139.81287 117.84636 137.79177 114.6769 C 136.36361 112.64875 134.2053 111.64359 131.57768 111.50397 z M 129.04088 139.41286 C 123.80435 139.41286 120.12971 140.28578 118.01675 142.0313 C 115.90376 143.77681 114.84743 146.5329 114.84743 150.29953 C 114.84743 153.9743 115.78877 156.75318 117.67207 158.63649 C 119.55537 160.47388 122.44929 161.39239 126.35371 161.39239 C 129.33945 161.39239 132.14164 160.79559 134.75991 159.60129 C 137.4241 158.40699 139.16945 156.75334 139.99628 154.64035 C 140.86903 152.48143 141.30576 149.10521 141.30576 144.51177 L 141.30576 140.44639 C 137.30948 139.75737 133.22089 139.41286 129.04088 139.41286 z M 211.75263 187.62128 L 216.55285 208.53784 L 237.69316 212.6828 L 216.77661 217.48354 L 212.69055 238.62282 L 207.85312 217.71195 L 186.69059 213.62125 L 207.60249 208.78382 L 211.75263 187.62128 z " />
</svg>