<?xml version="1.0" encoding="UTF-8" standalone="no"?>
<!-- Created with Inkscape (http://www.inkscape.org/) -->

<svg
   width="268mm"
   height="268mm"
   viewBox="0 0 268 268"
   version="1.1"
   id="svg1"
   xml:space="preserve"
   xmlns="http://www.w3.org/2000/svg"
   xmlns:svg="http://www.w3.org/2000/svg"><defs
     id="defs1" /><g
     id="layer2"><path
       id="rect1"
       style="opacity:1;fill:#000000;fill-opacity:1;stroke-width:2.185;stroke-linecap:round;stroke-linejoin:round"
       d="M 68.520884,0 C 30.560623,0 0,30.560623 0,68.520884 V 199.33253 c 0,37.96025 30.560623,68.52037 68.520884,68.52037 H 199.33253 c 37.96025,0 68.52037,-30.56012 68.52037,-68.52037 V 68.520884 C 267.8529,30.560623 237.29278,0 199.33253,0 Z m 65.405826,28.393099 13.73094,35.923385 -0.12506,0.01861 c 27.58384,6.08283 49.16901,28.08527 54.60804,55.905106 l 0.007,-0.045 35.92339,13.73095 -35.91151,13.72681 c -5.40014,27.87739 -27.00367,49.93696 -54.62819,56.0281 l 0.12661,0.0186 -13.73094,35.92339 -13.47722,-35.25832 C 91.031924,199.522 67.680534,176.76684 62.047894,147.62303 l -0.0052,0.0346 -35.923388,-13.73146 35.923388,-13.73095 0.02429,0.16382 c 4.47286,-23.074986 20.013,-42.200836 40.917906,-51.551886 5.49916,-2.45985 11.36829,-4.23978 17.49816,-5.24361 z m 3.92999,45.129545 c -23.48724,0.53604 -40.142246,39.462706 -40.142246,39.462706 0,0 16.823316,-14.079536 28.875236,-14.520046 19.55284,-0.71468 28.28922,9.991016 28.28922,21.861716 v 26.73377 c -0.0988,11.86711 2.73514,15.08952 9.43974,15.08952 13.50105,0 32.57649,-89.975086 -26.46195,-88.627666 z m -6.27921,37.981136 c -18.39335,-0.97732 -59.785046,40.46842 -34.736376,70.49389 15.830416,18.97569 56.807716,20.89796 73.252376,-14.22807 -1.52251,0.82409 -13.44079,7.89077 -27.41021,-4.03438 -15.72295,9.06382 -31.51596,8.5074 -37.75791,2.5492 -3.03166,-2.93981 -4.54752,-7.28066 -4.54752,-13.02246 0,-7.02795 2.50329,-12.40235 7.51013,-16.12305 5.05279,-3.72066 12.81598,-5.58105 23.28902,-5.58105 h 10.12858 c -0.32154,-8.08446 -1.49289,-13.71168 -3.51399,-16.88114 -1.42816,-2.02815 -3.58647,-3.03332 -6.2141,-3.17294 z m -2.53679,27.9089 c -5.23654,0 -8.91116,0.87292 -11.02413,2.61844 -2.11299,1.74551 -3.16932,4.5016 -3.16932,8.26823 0,3.67477 0.94133,6.45365 2.82463,8.33696 1.88331,1.83739 4.77722,2.7559 8.68164,2.7559 2.98575,0 5.78794,-0.5968 8.40621,-1.7911 2.66419,-1.1943 4.40954,-2.84795 5.23637,-4.96094 0.87275,-2.15892 1.30948,-5.53514 1.30948,-10.12858 v -4.06539 c -3.99629,-0.68902 -8.08487,-1.03352 -12.26488,-1.03352 z" /></g></svg>
