<svg
  viewBox="0 0 212 212"
  xmlns="http://www.w3.org/2000/svg">
  <path
    fill="#0b1d41"
    d="M 107.83167,0.385 94.388046,35.555463 c -6.12984,1.003827 -11.99902,2.783766 -17.49815,5.243607 -20.904855,9.351023 -36.46936,28.313151 -40.942208,51.388083 L 0.0243,105.91809 35.947688,119.64955 c 5.632625,29.14372 28.989021,51.86443 58.406768,56.70713 l 13.477214,35.25832 13.73094,-35.92339 c 27.62443,-6.09111 49.10147,-28.16941 54.50158,-56.04671 L 211.9757,105.91809 176.05231,92.187153 C 170.61328,64.367386 149.14636,42.3912 121.56261,36.308388 Z M 23.254923,21.65657 20.264925,36.903701 5.198144,40.389276 20.445276,43.336383 23.930851,58.403164 26.874857,43.172052 41.944738,39.713349 26.713627,36.726968 Z m 88.506737,23.857975 c 59.03826,-1.347417 39.96297,88.627665 26.46195,88.627665 -6.70457,0 -9.53853,-3.22244 -9.43973,-15.08952 V 92.318923 c 0,-11.87067 -8.73645,-22.576392 -28.28923,-21.861715 -12.051884,0.44051 -28.875237,14.520045 -28.875237,14.520045 0,0 16.655073,-38.926671 40.142247,-39.462708 z m -6.2792,37.981148 c 2.6276,0.13962 4.78593,1.14478 6.21409,3.17293 2.0211,3.16946 3.19245,8.79671 3.51399,16.881137 h -10.12858 c -10.473004,0 -18.236244,1.86042 -23.289004,5.58105 -5.00684,3.7207 -7.51014,9.09513 -7.51014,16.12305 0,5.74177 1.51587,10.08265 4.54753,13.02246 6.24192,5.9582 22.034974,6.51459 37.757894,-2.5492 13.96936,11.92512 25.8877,4.85847 27.41021,4.03438 -16.4446,35.12594 -57.422004,33.20373 -73.252369,14.22807 C 45.697486,123.96419 87.089146,82.518373 105.48246,83.495693 Z m -2.5368,27.908887 c 4.18001,0 8.26862,0.34451 12.26488,1.03353 v 4.06538 c 0,4.59344 -0.43673,7.96966 -1.30948,10.12858 -0.82683,2.11299 -2.57218,3.76664 -5.23637,4.96094 -2.61827,1.1943 -5.42048,1.7911 -8.4062,1.7911 -3.904414,0 -6.798354,-0.91851 -8.681634,-2.7559 -1.8833,-1.88331 -2.82464,-4.66219 -2.82464,-8.33696 0,-3.76663 1.05633,-6.52272 3.16932,-8.26823 2.11294,-1.74552 5.78762,-2.61844 11.024124,-2.61844 z m 82.71175,48.20842 -4.15014,21.16254 -20.9119,4.83743 21.16253,4.0907 4.83743,20.91087 4.08606,-21.13928 20.91655,-4.80074 -21.14031,-4.14496 z" />
</svg>