<?xml version="1.0" encoding="UTF-8" standalone="no"?>
<!-- Created with Inkscape (http://www.inkscape.org/) -->

<svg
   width="212mm"
   height="212mm"
   viewBox="0 0 212 212"
   version="1.1"
   id="svg1"
   xml:space="preserve"
   xmlns="http://www.w3.org/2000/svg"
   xmlns:svg="http://www.w3.org/2000/svg"><defs
     id="defs1" /><g
     id="layer2"><path
       id="rect9"
       style="opacity:1;fill:#000000;fill-opacity:1;stroke-width:2.185;stroke-linecap:round;stroke-linejoin:round"
       d="M 107.80737,0 94.363754,35.170463 c -6.12987,1.003828 -11.99902,2.783762 -17.49816,5.243608 -20.904868,9.35103 -36.445067,28.476954 -40.917917,51.55189 L 35.923389,91.802151 0,105.53309 l 35.923389,13.73146 0.0052,-0.0346 c 5.63263,29.14375 28.984336,51.89903 58.402118,56.74176 l 13.477213,35.25831 13.73094,-35.92339 -0.12661,-0.0186 c 27.62448,-6.09114 49.22807,-28.15076 54.62819,-56.02811 l 35.91151,-13.72681 -35.92339,-13.730939 -0.007,0.04496 C 170.58228,64.027323 148.99704,42.02481 121.41326,35.941992 l 0.12505,-0.0186 z m 3.92999,45.129545 c 59.03832,-1.347418 39.96298,88.627665 26.46195,88.627665 -6.70458,0 -9.53853,-3.22243 -9.43973,-15.08952 V 91.933921 c 0,-11.87068 -8.73643,-22.576392 -28.28923,-21.861712 -12.051896,0.440508 -28.875237,14.520042 -28.875237,14.520042 0,0 16.655071,-38.926666 40.142247,-39.462706 z m -6.2792,37.981146 c 2.62763,0.13962 4.78593,1.14478 6.21409,3.17293 2.0211,3.16946 3.19246,8.7967 3.514,16.881139 h -10.12858 c -10.473016,0 -18.236246,1.8604 -23.289016,5.58106 -5.00684,3.72068 -7.51014,9.09511 -7.51014,16.12304 0,5.7418 1.51587,10.08267 4.54753,13.02246 6.24193,5.9582 22.034986,6.51461 37.757896,-2.54919 13.9694,11.92511 25.88772,4.85846 27.41021,4.03437 -16.44462,35.12597 -57.421986,33.20373 -73.252369,14.22808 -25.04862,-30.02541 16.343073,-71.471209 34.736379,-70.493889 z m -2.5368,27.908889 c 4.18001,0 8.2686,0.34451 12.26489,1.03353 v 4.06538 c 0,4.59344 -0.43673,7.96968 -1.30948,10.12858 -0.82683,2.11299 -2.57219,3.76664 -5.23638,4.96094 -2.61825,1.1943 -5.42047,1.79111 -8.4062,1.79111 -3.904416,0 -6.798326,-0.91852 -8.681636,-2.75591 -1.8833,-1.88331 -2.82464,-4.66219 -2.82464,-8.33696 0,-3.76661 1.05633,-6.52272 3.16932,-8.26823 2.11297,-1.7455 5.78761,-2.61844 11.024126,-2.61844 z" /></g></svg>
