<svg version="1.1" viewBox="0 0 22 32" xmlns="http://www.w3.org/2000/svg">
  <path
     d="M 2,0 C 1.7000003,0 1.3992185,0.10039092 1.1992188,0.40039062 0.9992189,0.70039033 1,0.89921905 1,1.1992188 L 2.8007812,10.900391 C 4.20078,9.8003917 5.700392,8.9999995 7.400391,8.5 L 7,0 Z M 9,0 9.300781,8.0996094 C 9.900781,7.9996095 10.400001,8 11,8 c 0.599999,0 1.099219,-3.905e-4 1.699219,0.099609 L 13,0 Z m 6,0 -0.300781,8.5 c 1.599998,0.4999995 3.100001,1.3003917 4.5,2.400391 L 21,1.1992188 C 21.1,0.89921905 21.000781,0.60039042 20.800781,0.40039062 20.600781,0.20039082 20.3,0 20,0 Z M 11,10 C 4.900006,10 0,14.900006 0,21 0,27.099994 4.900006,32 11,32 17.099994,32 22,27.099994 22,21 22,14.900006 17.099994,10 11,10 Z" />
</svg>